<svg width="1140" height="900" viewBox="0 0 1140 900" fill="none" xmlns="http://www.w3.org/2000/svg">
<rect width="95" height="900" fill="#D6DEE3"/>
<rect x="95" width="95" height="900" fill="#D1D1D1"/>
<rect x="190" width="95" height="900" fill="#D6DEE3"/>
<rect x="285" width="95" height="900" fill="#D1D1D1"/>
<rect x="380" width="95" height="900" fill="#D6DEE3"/>
<rect x="475" width="95" height="900" fill="#D1D1D1"/>
<rect x="570" width="95" height="900" fill="#D6DEE3"/>
<rect x="665" width="95" height="900" fill="#D1D1D1"/>
<rect x="760" width="95" height="900" fill="#D6DEE3"/>
<rect x="855" width="95" height="900" fill="#D1D1D1"/>
<rect x="950" width="95" height="900" fill="#D6DEE3"/>
<rect x="1045" width="95" height="900" fill="#D1D1D1"/>
<path d="M504.349 101V63.1818H527.025V67.2443H508.929V80.0227H525.326V84.0852H508.929V101H504.349ZM531.697 101H526.896L540.782 63.1818H545.51L559.396 101H554.595L543.294 69.1648H542.998L531.697 101ZM533.47 86.2273H552.822V90.2898H533.47V86.2273ZM565.287 101V63.1818H578.065C581.02 63.1818 583.445 63.6866 585.341 64.696C587.236 65.6932 588.64 67.0658 589.551 68.8139C590.462 70.562 590.917 72.5502 590.917 74.7784C590.917 77.0066 590.462 78.9825 589.551 80.706C588.64 82.4294 587.243 83.7836 585.359 84.7685C583.475 85.741 581.069 86.2273 578.139 86.2273H567.798V82.0909H577.991C580.01 82.0909 581.635 81.7955 582.866 81.2045C584.109 80.6136 585.008 79.7765 585.562 78.6932C586.128 77.5975 586.412 76.2926 586.412 74.7784C586.412 73.2642 586.128 71.9408 585.562 70.8082C584.996 69.6757 584.091 68.8016 582.848 68.1861C581.604 67.5582 579.961 67.2443 577.917 67.2443H569.866V101H565.287ZM583.088 84.0114L592.395 101H587.076L577.917 84.0114H583.088ZM598.548 63.1818H604.014L616.866 94.5739H617.31L630.162 63.1818H635.628V101H631.344V72.267H630.974L619.156 101H615.02L603.202 72.267H602.832V101H598.548V63.1818Z" fill="black"/>
<rect width="1140" height="900" fill="#858585"/>
<rect width="1140" height="900" fill="#858585"/>
<rect width="1140" height="900" fill="white"/>
<path d="M1010 764.975L1044.5 739L1079 764.975V815H1010V764.975Z" fill="#232323"/>
<path d="M95 346H554.259H983.889L1045 555H554.259H95V346Z" fill="#018D20" fill-opacity="0.5"/>
<rect x="32.5" y="32.5" width="1075" height="835" stroke="black"/>
<path d="M82.3896 640.727C82.3896 642.261 82.1126 643.587 81.5586 644.705C81.0046 645.822 80.2447 646.684 79.2788 647.29C78.3129 647.896 77.2096 648.199 75.9691 648.199C74.7286 648.199 73.6254 647.896 72.6594 647.29C71.6935 646.684 70.9336 645.822 70.3796 644.705C69.8256 643.587 69.5487 642.261 69.5487 640.727C69.5487 639.193 69.8256 637.867 70.3796 636.75C70.9336 635.633 71.6935 634.771 72.6594 634.165C73.6254 633.559 74.7286 633.256 75.9691 633.256C77.2096 633.256 78.3129 633.559 79.2788 634.165C80.2447 634.771 81.0046 635.633 81.5586 636.75C82.1126 637.867 82.3896 639.193 82.3896 640.727ZM80.685 640.727C80.685 639.468 80.4743 638.405 80.0529 637.538C79.6362 636.672 79.0704 636.016 78.3555 635.571C77.6452 635.126 76.8498 634.903 75.9691 634.903C75.0884 634.903 74.2906 635.126 73.5756 635.571C72.8654 636.016 72.2996 636.672 71.8782 637.538C71.4615 638.405 71.2532 639.468 71.2532 640.727C71.2532 641.987 71.4615 643.05 71.8782 643.916C72.2996 644.783 72.8654 645.438 73.5756 645.884C74.2906 646.329 75.0884 646.551 75.9691 646.551C76.8498 646.551 77.6452 646.329 78.3555 645.884C79.0704 645.438 79.6362 644.783 80.0529 643.916C80.4743 643.05 80.685 641.987 80.685 640.727ZM86.8001 633.455V648H85.1239V633.455H86.8001ZM89.87 648V637.091H91.5462V648H89.87ZM90.7223 635.273C90.3956 635.273 90.1139 635.161 89.8771 634.939C89.6451 634.716 89.5291 634.449 89.5291 634.136C89.5291 633.824 89.6451 633.556 89.8771 633.334C90.1139 633.111 90.3956 633 90.7223 633C91.049 633 91.3284 633.111 91.5604 633.334C91.7971 633.556 91.9155 633.824 91.9155 634.136C91.9155 634.449 91.7971 634.716 91.5604 634.939C91.3284 635.161 91.049 635.273 90.7223 635.273ZM103.537 637.091L99.5025 648H97.7979L93.7638 637.091H95.582L98.5934 645.784H98.707L101.718 637.091H103.537ZM109.932 648.227C108.881 648.227 107.974 647.995 107.212 647.531C106.454 647.062 105.87 646.409 105.458 645.571C105.051 644.728 104.847 643.748 104.847 642.631C104.847 641.513 105.051 640.528 105.458 639.676C105.87 638.819 106.443 638.152 107.176 637.673C107.915 637.19 108.777 636.949 109.762 636.949C110.33 636.949 110.891 637.044 111.445 637.233C111.999 637.422 112.503 637.73 112.958 638.156C113.412 638.578 113.775 639.136 114.044 639.832C114.314 640.528 114.449 641.385 114.449 642.403V643.114H106.04V641.665H112.745C112.745 641.049 112.622 640.5 112.375 640.017C112.134 639.534 111.788 639.153 111.338 638.874C110.893 638.594 110.368 638.455 109.762 638.455C109.094 638.455 108.516 638.62 108.029 638.952C107.546 639.278 107.174 639.705 106.914 640.23C106.653 640.756 106.523 641.319 106.523 641.92V642.886C106.523 643.71 106.665 644.409 106.949 644.982C107.238 645.55 107.638 645.983 108.15 646.281C108.661 646.575 109.255 646.722 109.932 646.722C110.373 646.722 110.77 646.66 111.125 646.537C111.485 646.409 111.795 646.22 112.056 645.969C112.316 645.713 112.517 645.396 112.659 645.017L114.279 645.472C114.108 646.021 113.822 646.504 113.419 646.92C113.017 647.332 112.52 647.654 111.928 647.886C111.336 648.114 110.671 648.227 109.932 648.227ZM124.726 639.534L123.221 639.96C123.126 639.709 122.986 639.465 122.801 639.229C122.622 638.987 122.375 638.788 122.063 638.632C121.75 638.476 121.35 638.398 120.863 638.398C120.195 638.398 119.639 638.552 119.194 638.859C118.753 639.162 118.533 639.548 118.533 640.017C118.533 640.434 118.685 640.763 118.988 641.004C119.291 641.246 119.764 641.447 120.408 641.608L122.027 642.006C123.003 642.242 123.73 642.605 124.208 643.092C124.686 643.575 124.925 644.198 124.925 644.96C124.925 645.585 124.745 646.144 124.385 646.636C124.03 647.129 123.533 647.517 122.894 647.801C122.255 648.085 121.511 648.227 120.664 648.227C119.551 648.227 118.63 647.986 117.901 647.503C117.172 647.02 116.71 646.314 116.516 645.386L118.107 644.989C118.258 645.576 118.545 646.016 118.966 646.31C119.392 646.603 119.949 646.75 120.635 646.75C121.417 646.75 122.037 646.584 122.496 646.253C122.96 645.917 123.192 645.514 123.192 645.045C123.192 644.667 123.06 644.349 122.794 644.094C122.529 643.833 122.122 643.639 121.573 643.511L119.755 643.085C118.756 642.848 118.022 642.482 117.553 641.984C117.089 641.482 116.857 640.855 116.857 640.102C116.857 639.487 117.03 638.942 117.375 638.469C117.726 637.995 118.202 637.624 118.803 637.354C119.409 637.084 120.096 636.949 120.863 636.949C121.942 636.949 122.79 637.186 123.405 637.659C124.025 638.133 124.466 638.758 124.726 639.534ZM137.817 637.091V638.511H132.164V637.091H137.817ZM133.812 634.477H135.488V644.875C135.488 645.348 135.557 645.704 135.694 645.94C135.836 646.172 136.016 646.329 136.234 646.409C136.456 646.485 136.691 646.523 136.937 646.523C137.121 646.523 137.273 646.513 137.391 646.494C137.51 646.471 137.604 646.452 137.675 646.438L138.016 647.943C137.903 647.986 137.744 648.028 137.54 648.071C137.337 648.118 137.079 648.142 136.766 648.142C136.293 648.142 135.829 648.04 135.374 647.837C134.924 647.633 134.55 647.323 134.252 646.906C133.959 646.49 133.812 645.964 133.812 645.33V634.477ZM141.418 652.091C141.134 652.091 140.881 652.067 140.658 652.02C140.436 651.977 140.282 651.935 140.197 651.892L140.623 650.415C141.03 650.519 141.39 650.557 141.702 650.528C142.015 650.5 142.292 650.36 142.533 650.109C142.78 649.863 143.004 649.463 143.208 648.909L143.521 648.057L139.487 637.091H141.305L144.316 645.784H144.43L147.441 637.091H149.259L144.629 649.591C144.42 650.154 144.162 650.621 143.854 650.99C143.547 651.364 143.189 651.641 142.782 651.821C142.379 652.001 141.925 652.091 141.418 652.091ZM151.472 652.091V637.091H153.091V638.824H153.29C153.413 638.634 153.583 638.393 153.801 638.099C154.024 637.801 154.341 637.536 154.753 637.304C155.17 637.067 155.733 636.949 156.443 636.949C157.362 636.949 158.171 637.179 158.872 637.638C159.573 638.097 160.12 638.748 160.513 639.591C160.906 640.434 161.102 641.428 161.102 642.574C161.102 643.729 160.906 644.731 160.513 645.578C160.12 646.421 159.575 647.074 158.879 647.538C158.183 647.998 157.381 648.227 156.472 648.227C155.771 648.227 155.21 648.111 154.788 647.879C154.367 647.643 154.043 647.375 153.815 647.077C153.588 646.774 153.413 646.523 153.29 646.324H153.148V652.091H151.472ZM153.119 642.545C153.119 643.369 153.24 644.096 153.482 644.726C153.723 645.351 154.076 645.841 154.54 646.196C155.004 646.546 155.572 646.722 156.244 646.722C156.945 646.722 157.53 646.537 157.999 646.168C158.472 645.794 158.827 645.292 159.064 644.662C159.305 644.027 159.426 643.322 159.426 642.545C159.426 641.778 159.308 641.087 159.071 640.472C158.839 639.851 158.486 639.361 158.013 639.001C157.544 638.637 156.955 638.455 156.244 638.455C155.563 638.455 154.99 638.627 154.526 638.973C154.062 639.314 153.711 639.792 153.474 640.408C153.238 641.018 153.119 641.731 153.119 642.545ZM168.233 648.227C167.182 648.227 166.275 647.995 165.513 647.531C164.755 647.062 164.17 646.409 163.759 645.571C163.351 644.728 163.148 643.748 163.148 642.631C163.148 641.513 163.351 640.528 163.759 639.676C164.17 638.819 164.743 638.152 165.477 637.673C166.216 637.19 167.078 636.949 168.062 636.949C168.631 636.949 169.192 637.044 169.746 637.233C170.3 637.422 170.804 637.73 171.259 638.156C171.713 638.578 172.075 639.136 172.345 639.832C172.615 640.528 172.75 641.385 172.75 642.403V643.114H164.341V641.665H171.045C171.045 641.049 170.922 640.5 170.676 640.017C170.435 639.534 170.089 639.153 169.639 638.874C169.194 638.594 168.669 638.455 168.062 638.455C167.395 638.455 166.817 638.62 166.33 638.952C165.847 639.278 165.475 639.705 165.214 640.23C164.954 640.756 164.824 641.319 164.824 641.92V642.886C164.824 643.71 164.966 644.409 165.25 644.982C165.539 645.55 165.939 645.983 166.45 646.281C166.962 646.575 167.556 646.722 168.233 646.722C168.673 646.722 169.071 646.66 169.426 646.537C169.786 646.409 170.096 646.22 170.357 645.969C170.617 645.713 170.818 645.396 170.96 645.017L172.58 645.472C172.409 646.021 172.123 646.504 171.72 646.92C171.318 647.332 170.821 647.654 170.229 647.886C169.637 648.114 168.972 648.227 168.233 648.227ZM176.521 648.114C176.171 648.114 175.87 647.988 175.619 647.737C175.368 647.486 175.243 647.186 175.243 646.835C175.243 646.485 175.368 646.184 175.619 645.933C175.87 645.682 176.171 645.557 176.521 645.557C176.872 645.557 177.172 645.682 177.423 645.933C177.674 646.184 177.8 646.485 177.8 646.835C177.8 647.067 177.741 647.28 177.622 647.474C177.509 647.669 177.355 647.825 177.161 647.943C176.971 648.057 176.758 648.114 176.521 648.114ZM176.521 640.017C176.171 640.017 175.87 639.892 175.619 639.641C175.368 639.39 175.243 639.089 175.243 638.739C175.243 638.388 175.368 638.088 175.619 637.837C175.87 637.586 176.171 637.46 176.521 637.46C176.872 637.46 177.172 637.586 177.423 637.837C177.674 638.088 177.8 638.388 177.8 638.739C177.8 638.971 177.741 639.184 177.622 639.378C177.509 639.572 177.355 639.728 177.161 639.847C176.971 639.96 176.758 640.017 176.521 640.017ZM198.364 638H196.603C196.499 637.493 196.317 637.048 196.056 636.665C195.8 636.281 195.488 635.959 195.119 635.699C194.754 635.434 194.349 635.235 193.904 635.102C193.459 634.97 192.995 634.903 192.512 634.903C191.631 634.903 190.834 635.126 190.119 635.571C189.408 636.016 188.843 636.672 188.421 637.538C188.004 638.405 187.796 639.468 187.796 640.727C187.796 641.987 188.004 643.05 188.421 643.916C188.843 644.783 189.408 645.438 190.119 645.884C190.834 646.329 191.631 646.551 192.512 646.551C192.995 646.551 193.459 646.485 193.904 646.352C194.349 646.22 194.754 646.023 195.119 645.763C195.488 645.498 195.8 645.173 196.056 644.79C196.317 644.402 196.499 643.956 196.603 643.455H198.364C198.232 644.198 197.99 644.863 197.64 645.45C197.29 646.037 196.854 646.537 196.333 646.949C195.812 647.356 195.228 647.666 194.579 647.879C193.935 648.092 193.246 648.199 192.512 648.199C191.272 648.199 190.168 647.896 189.202 647.29C188.237 646.684 187.477 645.822 186.923 644.705C186.369 643.587 186.092 642.261 186.092 640.727C186.092 639.193 186.369 637.867 186.923 636.75C187.477 635.633 188.237 634.771 189.202 634.165C190.168 633.559 191.272 633.256 192.512 633.256C193.246 633.256 193.935 633.362 194.579 633.575C195.228 633.788 195.812 634.101 196.333 634.513C196.854 634.92 197.29 635.417 197.64 636.004C197.99 636.587 198.232 637.252 198.364 638ZM205.557 648.227C204.506 648.227 203.599 647.995 202.837 647.531C202.079 647.062 201.495 646.409 201.083 645.571C200.676 644.728 200.472 643.748 200.472 642.631C200.472 641.513 200.676 640.528 201.083 639.676C201.495 638.819 202.068 638.152 202.801 637.673C203.54 637.19 204.402 636.949 205.387 636.949C205.955 636.949 206.516 637.044 207.07 637.233C207.624 637.422 208.128 637.73 208.583 638.156C209.037 638.578 209.4 639.136 209.669 639.832C209.939 640.528 210.074 641.385 210.074 642.403V643.114H201.665V641.665H208.37C208.37 641.049 208.247 640.5 208 640.017C207.759 639.534 207.413 639.153 206.963 638.874C206.518 638.594 205.993 638.455 205.387 638.455C204.719 638.455 204.141 638.62 203.654 638.952C203.171 639.278 202.799 639.705 202.539 640.23C202.278 640.756 202.148 641.319 202.148 641.92V642.886C202.148 643.71 202.29 644.409 202.574 644.982C202.863 645.55 203.263 645.983 203.775 646.281C204.286 646.575 204.88 646.722 205.557 646.722C205.998 646.722 206.395 646.66 206.75 646.537C207.11 646.409 207.42 646.22 207.681 645.969C207.941 645.713 208.142 645.396 208.284 645.017L209.904 645.472C209.733 646.021 209.447 646.504 209.044 646.92C208.642 647.332 208.145 647.654 207.553 647.886C206.961 648.114 206.296 648.227 205.557 648.227ZM212.624 648V637.091H214.243V638.739H214.357C214.556 638.199 214.916 637.761 215.436 637.425C215.957 637.089 216.544 636.92 217.198 636.92C217.321 636.92 217.475 636.923 217.659 636.928C217.844 636.932 217.984 636.939 218.078 636.949V638.653C218.022 638.639 217.891 638.618 217.688 638.589C217.489 638.556 217.278 638.54 217.056 638.54C216.525 638.54 216.052 638.651 215.635 638.874C215.223 639.091 214.897 639.394 214.655 639.783C214.418 640.166 214.3 640.604 214.3 641.097V648H212.624ZM223.276 648.256C222.584 648.256 221.957 648.125 221.393 647.865C220.83 647.6 220.383 647.219 220.051 646.722C219.72 646.22 219.554 645.614 219.554 644.903C219.554 644.278 219.677 643.772 219.923 643.384C220.17 642.991 220.499 642.683 220.911 642.46C221.322 642.238 221.777 642.072 222.274 641.963C222.776 641.849 223.28 641.759 223.787 641.693C224.45 641.608 224.987 641.544 225.399 641.501C225.816 641.454 226.119 641.376 226.308 641.267C226.502 641.158 226.599 640.969 226.599 640.699V640.642C226.599 639.941 226.408 639.397 226.024 639.009C225.645 638.62 225.07 638.426 224.298 638.426C223.498 638.426 222.871 638.601 222.416 638.952C221.962 639.302 221.642 639.676 221.457 640.074L219.866 639.506C220.151 638.843 220.529 638.327 221.003 637.957C221.481 637.583 222.002 637.323 222.565 637.176C223.134 637.025 223.692 636.949 224.241 636.949C224.592 636.949 224.994 636.991 225.449 637.077C225.908 637.157 226.351 637.325 226.777 637.581C227.208 637.837 227.565 638.223 227.849 638.739C228.134 639.255 228.276 639.946 228.276 640.812V648H226.599V646.523H226.514C226.401 646.759 226.211 647.013 225.946 647.283C225.681 647.553 225.328 647.782 224.888 647.972C224.447 648.161 223.91 648.256 223.276 648.256ZM223.531 646.75C224.194 646.75 224.753 646.62 225.207 646.359C225.667 646.099 226.012 645.763 226.244 645.351C226.481 644.939 226.599 644.506 226.599 644.051V642.517C226.528 642.602 226.372 642.68 226.131 642.751C225.894 642.818 225.619 642.877 225.307 642.929C224.999 642.976 224.698 643.019 224.405 643.057C224.116 643.09 223.882 643.118 223.702 643.142C223.266 643.199 222.859 643.291 222.48 643.419C222.106 643.542 221.803 643.729 221.571 643.98C221.344 644.226 221.23 644.562 221.23 644.989C221.23 645.571 221.446 646.011 221.876 646.31C222.312 646.603 222.864 646.75 223.531 646.75ZM239.062 639.534L237.556 639.96C237.462 639.709 237.322 639.465 237.137 639.229C236.958 638.987 236.711 638.788 236.399 638.632C236.086 638.476 235.686 638.398 235.199 638.398C234.531 638.398 233.975 638.552 233.529 638.859C233.089 639.162 232.869 639.548 232.869 640.017C232.869 640.434 233.02 640.763 233.324 641.004C233.627 641.246 234.1 641.447 234.744 641.608L236.363 642.006C237.339 642.242 238.065 642.605 238.544 643.092C239.022 643.575 239.261 644.198 239.261 644.96C239.261 645.585 239.081 646.144 238.721 646.636C238.366 647.129 237.869 647.517 237.23 647.801C236.591 648.085 235.847 648.227 235 648.227C233.887 648.227 232.966 647.986 232.237 647.503C231.508 647.02 231.046 646.314 230.852 645.386L232.443 644.989C232.594 645.576 232.881 646.016 233.302 646.31C233.728 646.603 234.285 646.75 234.971 646.75C235.752 646.75 236.373 646.584 236.832 646.253C237.296 645.917 237.528 645.514 237.528 645.045C237.528 644.667 237.395 644.349 237.13 644.094C236.865 643.833 236.458 643.639 235.909 643.511L234.091 643.085C233.092 642.848 232.358 642.482 231.889 641.984C231.425 641.482 231.193 640.855 231.193 640.102C231.193 639.487 231.366 638.942 231.711 638.469C232.062 637.995 232.538 637.624 233.139 637.354C233.745 637.084 234.431 636.949 235.199 636.949C236.278 636.949 237.126 637.186 237.741 637.659C238.361 638.133 238.802 638.758 239.062 639.534ZM248.659 643.54V637.091H250.335V648H248.659V646.153H248.545C248.29 646.707 247.892 647.179 247.352 647.567C246.813 647.95 246.131 648.142 245.307 648.142C244.625 648.142 244.019 647.993 243.489 647.695C242.958 647.392 242.542 646.937 242.239 646.331C241.936 645.72 241.784 644.951 241.784 644.023V637.091H243.46V643.909C243.46 644.705 243.683 645.339 244.128 645.812C244.578 646.286 245.151 646.523 245.847 646.523C246.263 646.523 246.687 646.416 247.118 646.203C247.554 645.99 247.918 645.663 248.212 645.223C248.51 644.783 248.659 644.222 248.659 643.54ZM257.837 648.227C256.852 648.227 255.988 647.993 255.245 647.524C254.506 647.055 253.928 646.4 253.512 645.557C253.1 644.714 252.894 643.729 252.894 642.602C252.894 641.466 253.1 640.474 253.512 639.626C253.928 638.779 254.506 638.121 255.245 637.652C255.988 637.183 256.852 636.949 257.837 636.949C258.822 636.949 259.684 637.183 260.422 637.652C261.166 638.121 261.743 638.779 262.155 639.626C262.572 640.474 262.78 641.466 262.78 642.602C262.78 643.729 262.572 644.714 262.155 645.557C261.743 646.4 261.166 647.055 260.422 647.524C259.684 647.993 258.822 648.227 257.837 648.227ZM257.837 646.722C258.585 646.722 259.201 646.53 259.684 646.146C260.167 645.763 260.524 645.259 260.756 644.634C260.988 644.009 261.104 643.331 261.104 642.602C261.104 641.873 260.988 641.194 260.756 640.564C260.524 639.934 260.167 639.425 259.684 639.037C259.201 638.649 258.585 638.455 257.837 638.455C257.089 638.455 256.473 638.649 255.99 639.037C255.507 639.425 255.15 639.934 254.918 640.564C254.686 641.194 254.57 641.873 254.57 642.602C254.57 643.331 254.686 644.009 254.918 644.634C255.15 645.259 255.507 645.763 255.99 646.146C256.473 646.53 257.089 646.722 257.837 646.722ZM267.015 633.455V648H265.339V633.455H267.015ZM273.295 648.256C272.604 648.256 271.976 648.125 271.413 647.865C270.85 647.6 270.402 647.219 270.071 646.722C269.739 646.22 269.574 645.614 269.574 644.903C269.574 644.278 269.697 643.772 269.943 643.384C270.189 642.991 270.518 642.683 270.93 642.46C271.342 642.238 271.797 642.072 272.294 641.963C272.796 641.849 273.3 641.759 273.806 641.693C274.469 641.608 275.007 641.544 275.419 641.501C275.835 641.454 276.138 641.376 276.328 641.267C276.522 641.158 276.619 640.969 276.619 640.699V640.642C276.619 639.941 276.427 639.397 276.044 639.009C275.665 638.62 275.09 638.426 274.318 638.426C273.518 638.426 272.89 638.601 272.436 638.952C271.981 639.302 271.662 639.676 271.477 640.074L269.886 639.506C270.17 638.843 270.549 638.327 271.022 637.957C271.501 637.583 272.021 637.323 272.585 637.176C273.153 637.025 273.712 636.949 274.261 636.949C274.611 636.949 275.014 636.991 275.468 637.077C275.928 637.157 276.37 637.325 276.797 637.581C277.227 637.837 277.585 638.223 277.869 638.739C278.153 639.255 278.295 639.946 278.295 640.812V648H276.619V646.523H276.534C276.42 646.759 276.231 647.013 275.966 647.283C275.7 647.553 275.348 647.782 274.907 647.972C274.467 648.161 273.93 648.256 273.295 648.256ZM273.551 646.75C274.214 646.75 274.772 646.62 275.227 646.359C275.686 646.099 276.032 645.763 276.264 645.351C276.501 644.939 276.619 644.506 276.619 644.051V642.517C276.548 642.602 276.392 642.68 276.15 642.751C275.913 642.818 275.639 642.877 275.326 642.929C275.019 642.976 274.718 643.019 274.424 643.057C274.136 643.09 273.901 643.118 273.721 643.142C273.286 643.199 272.878 643.291 272.5 643.419C272.126 643.542 271.823 643.729 271.591 643.98C271.363 644.226 271.25 644.562 271.25 644.989C271.25 645.571 271.465 646.011 271.896 646.31C272.332 646.603 272.883 646.75 273.551 646.75ZM291.099 648.199C290.142 648.199 289.318 648.024 288.627 647.673C287.936 647.323 287.403 646.842 287.029 646.232C286.655 645.621 286.468 644.922 286.468 644.136C286.468 643.53 286.596 642.993 286.852 642.524C287.112 642.051 287.469 641.613 287.924 641.21C288.383 640.803 288.911 640.396 289.508 639.989L291.61 638.426C292.022 638.156 292.351 637.867 292.597 637.56C292.848 637.252 292.974 636.849 292.974 636.352C292.974 635.983 292.81 635.625 292.484 635.28C292.162 634.934 291.738 634.761 291.212 634.761C290.843 634.761 290.516 634.856 290.232 635.045C289.953 635.23 289.733 635.467 289.572 635.756C289.415 636.04 289.337 636.333 289.337 636.636C289.337 636.977 289.43 637.323 289.614 637.673C289.804 638.019 290.043 638.374 290.332 638.739C290.625 639.098 290.928 639.468 291.241 639.847L297.917 648H295.9L290.388 641.352C289.877 640.737 289.413 640.178 288.996 639.676C288.58 639.174 288.248 638.679 288.002 638.192C287.756 637.704 287.633 637.176 287.633 636.608C287.633 635.955 287.777 635.382 288.066 634.889C288.36 634.392 288.769 634.006 289.295 633.732C289.825 633.452 290.445 633.312 291.156 633.312C291.885 633.312 292.512 633.455 293.038 633.739C293.563 634.018 293.968 634.39 294.252 634.854C294.536 635.313 294.678 635.812 294.678 636.352C294.678 637.048 294.505 637.652 294.16 638.163C293.814 638.675 293.343 639.151 292.746 639.591L289.849 641.75C289.195 642.233 288.753 642.702 288.521 643.156C288.289 643.611 288.173 643.937 288.173 644.136C288.173 644.591 288.291 645.015 288.528 645.408C288.764 645.801 289.098 646.118 289.529 646.359C289.96 646.601 290.464 646.722 291.042 646.722C291.591 646.722 292.126 646.606 292.647 646.374C293.168 646.137 293.639 645.796 294.06 645.351C294.487 644.906 294.823 644.371 295.069 643.746C295.32 643.121 295.445 642.418 295.445 641.636H297.065C297.065 642.602 296.953 643.391 296.731 644.001C296.508 644.612 296.257 645.09 295.978 645.436C295.699 645.782 295.474 646.04 295.303 646.21C295.246 646.281 295.194 646.352 295.147 646.423C295.1 646.494 295.048 646.565 294.991 646.636C294.522 647.162 293.93 647.555 293.215 647.815C292.5 648.071 291.795 648.199 291.099 648.199ZM317.159 633.455V648H315.454L307.528 636.58H307.386V648H305.625V633.455H307.329L315.284 644.903H315.426V633.455H317.159ZM324.888 648.227C323.903 648.227 323.039 647.993 322.295 647.524C321.557 647.055 320.979 646.4 320.562 645.557C320.151 644.714 319.945 643.729 319.945 642.602C319.945 641.466 320.151 640.474 320.562 639.626C320.979 638.779 321.557 638.121 322.295 637.652C323.039 637.183 323.903 636.949 324.888 636.949C325.873 636.949 326.734 637.183 327.473 637.652C328.216 638.121 328.794 638.779 329.206 639.626C329.623 640.474 329.831 641.466 329.831 642.602C329.831 643.729 329.623 644.714 329.206 645.557C328.794 646.4 328.216 647.055 327.473 647.524C326.734 647.993 325.873 648.227 324.888 648.227ZM324.888 646.722C325.636 646.722 326.251 646.53 326.734 646.146C327.217 645.763 327.575 645.259 327.807 644.634C328.039 644.009 328.155 643.331 328.155 642.602C328.155 641.873 328.039 641.194 327.807 640.564C327.575 639.934 327.217 639.425 326.734 639.037C326.251 638.649 325.636 638.455 324.888 638.455C324.14 638.455 323.524 638.649 323.041 639.037C322.558 639.425 322.201 639.934 321.969 640.564C321.737 641.194 321.621 641.873 321.621 642.602C321.621 643.331 321.737 644.009 321.969 644.634C322.201 645.259 322.558 645.763 323.041 646.146C323.524 646.53 324.14 646.722 324.888 646.722ZM336.821 648.227C335.799 648.227 334.918 647.986 334.179 647.503C333.441 647.02 332.873 646.355 332.475 645.507C332.077 644.66 331.878 643.691 331.878 642.602C331.878 641.494 332.082 640.517 332.489 639.669C332.901 638.817 333.474 638.152 334.208 637.673C334.946 637.19 335.808 636.949 336.793 636.949C337.56 636.949 338.251 637.091 338.867 637.375C339.482 637.659 339.987 638.057 340.38 638.568C340.773 639.08 341.016 639.676 341.111 640.358H339.435C339.307 639.861 339.023 639.42 338.583 639.037C338.147 638.649 337.56 638.455 336.821 638.455C336.168 638.455 335.595 638.625 335.103 638.966C334.615 639.302 334.234 639.778 333.959 640.393C333.689 641.004 333.554 641.722 333.554 642.545C333.554 643.388 333.687 644.122 333.952 644.747C334.222 645.372 334.601 645.857 335.088 646.203C335.581 646.549 336.158 646.722 336.821 646.722C337.257 646.722 337.652 646.646 338.007 646.494C338.363 646.343 338.663 646.125 338.909 645.841C339.156 645.557 339.331 645.216 339.435 644.818H341.111C341.016 645.462 340.782 646.042 340.408 646.558C340.039 647.07 339.549 647.477 338.938 647.78C338.332 648.078 337.626 648.227 336.821 648.227ZM347.993 648.227C346.971 648.227 346.09 647.986 345.351 647.503C344.613 647.02 344.044 646.355 343.647 645.507C343.249 644.66 343.05 643.691 343.05 642.602C343.05 641.494 343.254 640.517 343.661 639.669C344.073 638.817 344.646 638.152 345.38 637.673C346.118 637.19 346.98 636.949 347.965 636.949C348.732 636.949 349.423 637.091 350.039 637.375C350.654 637.659 351.158 638.057 351.551 638.568C351.944 639.08 352.188 639.676 352.283 640.358H350.607C350.479 639.861 350.195 639.42 349.755 639.037C349.319 638.649 348.732 638.455 347.993 638.455C347.34 638.455 346.767 638.625 346.275 638.966C345.787 639.302 345.406 639.778 345.131 640.393C344.861 641.004 344.726 641.722 344.726 642.545C344.726 643.388 344.859 644.122 345.124 644.747C345.394 645.372 345.773 645.857 346.26 646.203C346.753 646.549 347.33 646.722 347.993 646.722C348.429 646.722 348.824 646.646 349.179 646.494C349.534 646.343 349.835 646.125 350.081 645.841C350.328 645.557 350.503 645.216 350.607 644.818H352.283C352.188 645.462 351.954 646.042 351.58 646.558C351.211 647.07 350.721 647.477 350.11 647.78C349.504 648.078 348.798 648.227 347.993 648.227ZM354.733 648V637.091H356.409V648H354.733ZM355.586 635.273C355.259 635.273 354.977 635.161 354.74 634.939C354.508 634.716 354.392 634.449 354.392 634.136C354.392 633.824 354.508 633.556 354.74 633.334C354.977 633.111 355.259 633 355.586 633C355.912 633 356.192 633.111 356.424 633.334C356.66 633.556 356.779 633.824 356.779 634.136C356.779 634.449 356.66 634.716 356.424 634.939C356.192 635.161 355.912 635.273 355.586 635.273ZM363.911 648.227C362.926 648.227 362.062 647.993 361.319 647.524C360.58 647.055 360.003 646.4 359.586 645.557C359.174 644.714 358.968 643.729 358.968 642.602C358.968 641.466 359.174 640.474 359.586 639.626C360.003 638.779 360.58 638.121 361.319 637.652C362.062 637.183 362.926 636.949 363.911 636.949C364.896 636.949 365.758 637.183 366.496 637.652C367.24 638.121 367.817 638.779 368.229 639.626C368.646 640.474 368.854 641.466 368.854 642.602C368.854 643.729 368.646 644.714 368.229 645.557C367.817 646.4 367.24 647.055 366.496 647.524C365.758 647.993 364.896 648.227 363.911 648.227ZM363.911 646.722C364.659 646.722 365.275 646.53 365.758 646.146C366.241 645.763 366.598 645.259 366.83 644.634C367.062 644.009 367.178 643.331 367.178 642.602C367.178 641.873 367.062 641.194 366.83 640.564C366.598 639.934 366.241 639.425 365.758 639.037C365.275 638.649 364.659 638.455 363.911 638.455C363.163 638.455 362.548 638.649 362.065 639.037C361.582 639.425 361.224 639.934 360.992 640.564C360.76 641.194 360.644 641.873 360.644 642.602C360.644 643.331 360.76 644.009 360.992 644.634C361.224 645.259 361.582 645.763 362.065 646.146C362.548 646.53 363.163 646.722 363.911 646.722ZM373.089 633.455V648H371.413V633.455H373.089ZM379.369 648.256C378.678 648.256 378.051 648.125 377.487 647.865C376.924 647.6 376.476 647.219 376.145 646.722C375.813 646.22 375.648 645.614 375.648 644.903C375.648 644.278 375.771 643.772 376.017 643.384C376.263 642.991 376.592 642.683 377.004 642.46C377.416 642.238 377.871 642.072 378.368 641.963C378.87 641.849 379.374 641.759 379.881 641.693C380.544 641.608 381.081 641.544 381.493 641.501C381.91 641.454 382.213 641.376 382.402 641.267C382.596 641.158 382.693 640.969 382.693 640.699V640.642C382.693 639.941 382.501 639.397 382.118 639.009C381.739 638.62 381.164 638.426 380.392 638.426C379.592 638.426 378.964 638.601 378.51 638.952C378.055 639.302 377.736 639.676 377.551 640.074L375.96 639.506C376.244 638.843 376.623 638.327 377.097 637.957C377.575 637.583 378.096 637.323 378.659 637.176C379.227 637.025 379.786 636.949 380.335 636.949C380.686 636.949 381.088 636.991 381.543 637.077C382.002 637.157 382.445 637.325 382.871 637.581C383.302 637.837 383.659 638.223 383.943 638.739C384.227 639.255 384.369 639.946 384.369 640.812V648H382.693V646.523H382.608C382.494 646.759 382.305 647.013 382.04 647.283C381.775 647.553 381.422 647.782 380.982 647.972C380.541 648.161 380.004 648.256 379.369 648.256ZM379.625 646.75C380.288 646.75 380.847 646.62 381.301 646.359C381.76 646.099 382.106 645.763 382.338 645.351C382.575 644.939 382.693 644.506 382.693 644.051V642.517C382.622 642.602 382.466 642.68 382.224 642.751C381.988 642.818 381.713 642.877 381.401 642.929C381.093 642.976 380.792 643.019 380.499 643.057C380.21 643.09 379.975 643.118 379.795 643.142C379.36 643.199 378.953 643.291 378.574 643.419C378.2 643.542 377.897 643.729 377.665 643.98C377.438 644.226 377.324 644.562 377.324 644.989C377.324 645.571 377.539 646.011 377.97 646.31C378.406 646.603 378.957 646.75 379.625 646.75ZM387.429 648V637.091H389.048V638.739H389.162C389.36 638.199 389.72 637.761 390.241 637.425C390.762 637.089 391.349 636.92 392.002 636.92C392.126 636.92 392.279 636.923 392.464 636.928C392.649 636.932 392.788 636.939 392.883 636.949V638.653C392.826 638.639 392.696 638.618 392.493 638.589C392.294 638.556 392.083 638.54 391.86 638.54C391.33 638.54 390.857 638.651 390.44 638.874C390.028 639.091 389.701 639.394 389.46 639.783C389.223 640.166 389.105 640.604 389.105 641.097V648H387.429ZM399.112 648.227C398.061 648.227 397.154 647.995 396.392 647.531C395.634 647.062 395.049 646.409 394.637 645.571C394.23 644.728 394.027 643.748 394.027 642.631C394.027 641.513 394.23 640.528 394.637 639.676C395.049 638.819 395.622 638.152 396.356 637.673C397.095 637.19 397.957 636.949 398.941 636.949C399.51 636.949 400.071 637.044 400.625 637.233C401.179 637.422 401.683 637.73 402.137 638.156C402.592 638.578 402.954 639.136 403.224 639.832C403.494 640.528 403.629 641.385 403.629 642.403V643.114H395.22V641.665H401.924C401.924 641.049 401.801 640.5 401.555 640.017C401.314 639.534 400.968 639.153 400.518 638.874C400.073 638.594 399.547 638.455 398.941 638.455C398.274 638.455 397.696 638.62 397.208 638.952C396.725 639.278 396.354 639.705 396.093 640.23C395.833 640.756 395.703 641.319 395.703 641.92V642.886C395.703 643.71 395.845 644.409 396.129 644.982C396.418 645.55 396.818 645.983 397.329 646.281C397.841 646.575 398.435 646.722 399.112 646.722C399.552 646.722 399.95 646.66 400.305 646.537C400.665 646.409 400.975 646.22 401.235 645.969C401.496 645.713 401.697 645.396 401.839 645.017L403.458 645.472C403.288 646.021 403.002 646.504 402.599 646.92C402.197 647.332 401.699 647.654 401.108 647.886C400.516 648.114 399.85 648.227 399.112 648.227Z" fill="black"/>
<path d="M70.5337 681H68.6871L74.0281 666.455H75.8462L81.1871 681H79.3406L74.994 668.756H74.8803L70.5337 681ZM71.2156 675.318H78.6587V676.881H71.2156V675.318ZM87.6289 685.318C86.8192 685.318 86.1232 685.214 85.5408 685.006C84.9585 684.802 84.4731 684.532 84.0849 684.196C83.7013 683.865 83.396 683.509 83.1687 683.131L84.5039 682.193C84.6554 682.392 84.8472 682.619 85.0792 682.875C85.3112 683.135 85.6284 683.36 86.0309 683.55C86.4381 683.744 86.9708 683.841 87.6289 683.841C88.5096 683.841 89.2364 683.628 89.8093 683.202C90.3822 682.776 90.6687 682.108 90.6687 681.199V678.983H90.5266C90.4035 679.182 90.2283 679.428 90.0011 679.722C89.7785 680.01 89.4566 680.268 89.0352 680.496C88.6185 680.718 88.055 680.83 87.3448 680.83C86.4641 680.83 85.6734 680.621 84.9727 680.205C84.2766 679.788 83.725 679.182 83.3178 678.386C82.9154 677.591 82.7141 676.625 82.7141 675.489C82.7141 674.371 82.9106 673.398 83.3036 672.57C83.6966 671.736 84.2435 671.092 84.9442 670.638C85.645 670.179 86.4547 669.949 87.3732 669.949C88.0835 669.949 88.6469 670.067 89.0636 670.304C89.485 670.536 89.8069 670.801 90.0295 671.099C90.2567 671.393 90.4319 671.634 90.555 671.824H90.7255V670.091H92.3448V681.312C92.3448 682.25 92.1317 683.012 91.7056 683.599C91.2842 684.191 90.716 684.625 90.0011 684.899C89.2908 685.179 88.5001 685.318 87.6289 685.318ZM87.5721 679.324C88.2444 679.324 88.8126 679.17 89.2766 678.862C89.7406 678.554 90.0934 678.112 90.3349 677.534C90.5763 676.956 90.6971 676.265 90.6971 675.46C90.6971 674.674 90.5787 673.981 90.342 673.379C90.1052 672.778 89.7549 672.307 89.2908 671.966C88.8268 671.625 88.2539 671.455 87.5721 671.455C86.8619 671.455 86.27 671.634 85.7965 671.994C85.3278 672.354 84.975 672.837 84.7383 673.443C84.5063 674.049 84.3903 674.722 84.3903 675.46C84.3903 676.218 84.5086 676.888 84.7454 677.47C84.9869 678.048 85.342 678.502 85.8107 678.834C86.2842 679.161 86.8713 679.324 87.5721 679.324ZM99.9869 681.227C98.9357 681.227 98.029 680.995 97.2667 680.531C96.5091 680.062 95.9244 679.409 95.5124 678.571C95.1052 677.728 94.9016 676.748 94.9016 675.631C94.9016 674.513 95.1052 673.528 95.5124 672.676C95.9244 671.819 96.4973 671.152 97.2312 670.673C97.9698 670.19 98.8316 669.949 99.8164 669.949C100.385 669.949 100.946 670.044 101.5 670.233C102.054 670.422 102.558 670.73 103.012 671.156C103.467 671.578 103.829 672.136 104.099 672.832C104.369 673.528 104.504 674.385 104.504 675.403V676.114H96.0948V674.665H102.799C102.799 674.049 102.676 673.5 102.43 673.017C102.189 672.534 101.843 672.153 101.393 671.874C100.948 671.594 100.422 671.455 99.8164 671.455C99.1488 671.455 98.5711 671.62 98.0835 671.952C97.6005 672.278 97.2288 672.705 96.9684 673.23C96.708 673.756 96.5778 674.319 96.5778 674.92V675.886C96.5778 676.71 96.7198 677.409 97.0039 677.982C97.2927 678.55 97.6928 678.983 98.2042 679.281C98.7156 679.575 99.3098 679.722 99.9869 679.722C100.427 679.722 100.825 679.66 101.18 679.537C101.54 679.409 101.85 679.22 102.11 678.969C102.371 678.713 102.572 678.396 102.714 678.017L104.333 678.472C104.163 679.021 103.877 679.504 103.474 679.92C103.072 680.332 102.574 680.654 101.983 680.886C101.391 681.114 100.725 681.227 99.9869 681.227ZM108.275 681.114C107.925 681.114 107.624 680.988 107.373 680.737C107.122 680.486 106.997 680.186 106.997 679.835C106.997 679.485 107.122 679.184 107.373 678.933C107.624 678.682 107.925 678.557 108.275 678.557C108.626 678.557 108.926 678.682 109.177 678.933C109.428 679.184 109.554 679.485 109.554 679.835C109.554 680.067 109.494 680.28 109.376 680.474C109.262 680.669 109.109 680.825 108.914 680.943C108.725 681.057 108.512 681.114 108.275 681.114ZM108.275 673.017C107.925 673.017 107.624 672.892 107.373 672.641C107.122 672.39 106.997 672.089 106.997 671.739C106.997 671.388 107.122 671.088 107.373 670.837C107.624 670.586 107.925 670.46 108.275 670.46C108.626 670.46 108.926 670.586 109.177 670.837C109.428 671.088 109.554 671.388 109.554 671.739C109.554 671.971 109.494 672.184 109.376 672.378C109.262 672.572 109.109 672.728 108.914 672.847C108.725 672.96 108.512 673.017 108.275 673.017ZM118.158 681V679.722L122.959 674.466C123.523 673.85 123.987 673.315 124.351 672.861C124.716 672.402 124.986 671.971 125.161 671.568C125.341 671.161 125.431 670.735 125.431 670.29C125.431 669.778 125.308 669.336 125.061 668.962C124.82 668.588 124.489 668.299 124.067 668.095C123.646 667.892 123.172 667.79 122.647 667.79C122.088 667.79 121.6 667.906 121.184 668.138C120.772 668.365 120.452 668.685 120.225 669.097C120.002 669.509 119.891 669.991 119.891 670.545H118.215C118.215 669.693 118.411 668.945 118.804 668.301C119.197 667.657 119.732 667.155 120.409 666.795C121.091 666.436 121.856 666.256 122.703 666.256C123.556 666.256 124.311 666.436 124.969 666.795C125.627 667.155 126.143 667.641 126.517 668.251C126.891 668.862 127.078 669.542 127.078 670.29C127.078 670.825 126.981 671.348 126.787 671.859C126.598 672.366 126.266 672.932 125.793 673.557C125.324 674.177 124.673 674.935 123.84 675.83L120.573 679.324V679.438H127.334V681H118.158ZM134.813 681.199C133.98 681.199 133.229 681.033 132.561 680.702C131.894 680.37 131.359 679.916 130.956 679.338C130.554 678.76 130.334 678.102 130.296 677.364H132C132.067 678.022 132.365 678.566 132.895 678.997C133.43 679.423 134.069 679.636 134.813 679.636C135.409 679.636 135.94 679.497 136.404 679.217C136.873 678.938 137.239 678.554 137.505 678.067C137.775 677.574 137.909 677.018 137.909 676.398C137.909 675.763 137.77 675.197 137.49 674.7C137.216 674.198 136.837 673.803 136.354 673.514C135.871 673.225 135.319 673.079 134.699 673.074C134.254 673.069 133.797 673.138 133.328 673.28C132.86 673.417 132.474 673.595 132.171 673.812L130.523 673.614L131.404 666.455H138.961V668.017H132.881L132.37 672.307H132.455C132.753 672.07 133.127 671.874 133.577 671.717C134.027 671.561 134.496 671.483 134.983 671.483C135.873 671.483 136.667 671.696 137.363 672.122C138.063 672.544 138.613 673.121 139.01 673.855C139.413 674.589 139.614 675.427 139.614 676.369C139.614 677.297 139.406 678.126 138.989 678.855C138.577 679.58 138.009 680.152 137.284 680.574C136.56 680.991 135.736 681.199 134.813 681.199ZM149.168 685.091C148.884 685.091 148.631 685.067 148.408 685.02C148.186 684.977 148.032 684.935 147.947 684.892L148.373 683.415C148.78 683.519 149.14 683.557 149.452 683.528C149.765 683.5 150.042 683.36 150.283 683.109C150.53 682.863 150.754 682.463 150.958 681.909L151.271 681.057L147.237 670.091H149.055L152.066 678.784H152.18L155.191 670.091H157.009L152.379 682.591C152.17 683.154 151.912 683.621 151.604 683.99C151.297 684.364 150.939 684.641 150.532 684.821C150.129 685.001 149.675 685.091 149.168 685.091ZM163.405 681.227C162.354 681.227 161.447 680.995 160.685 680.531C159.927 680.062 159.342 679.409 158.93 678.571C158.523 677.728 158.32 676.748 158.32 675.631C158.32 674.513 158.523 673.528 158.93 672.676C159.342 671.819 159.915 671.152 160.649 670.673C161.388 670.19 162.25 669.949 163.234 669.949C163.803 669.949 164.364 670.044 164.918 670.233C165.472 670.422 165.976 670.73 166.43 671.156C166.885 671.578 167.247 672.136 167.517 672.832C167.787 673.528 167.922 674.385 167.922 675.403V676.114H159.513V674.665H166.217C166.217 674.049 166.094 673.5 165.848 673.017C165.607 672.534 165.261 672.153 164.811 671.874C164.366 671.594 163.84 671.455 163.234 671.455C162.567 671.455 161.989 671.62 161.501 671.952C161.018 672.278 160.647 672.705 160.386 673.23C160.126 673.756 159.996 674.319 159.996 674.92V675.886C159.996 676.71 160.138 677.409 160.422 677.982C160.711 678.55 161.111 678.983 161.622 679.281C162.134 679.575 162.728 679.722 163.405 679.722C163.845 679.722 164.243 679.66 164.598 679.537C164.958 679.409 165.268 679.22 165.528 678.969C165.789 678.713 165.99 678.396 166.132 678.017L167.751 678.472C167.581 679.021 167.295 679.504 166.892 679.92C166.49 680.332 165.992 680.654 165.401 680.886C164.809 681.114 164.143 681.227 163.405 681.227ZM173.682 681.256C172.991 681.256 172.363 681.125 171.8 680.865C171.236 680.6 170.789 680.219 170.457 679.722C170.126 679.22 169.96 678.614 169.96 677.903C169.96 677.278 170.083 676.772 170.33 676.384C170.576 675.991 170.905 675.683 171.317 675.46C171.729 675.238 172.183 675.072 172.68 674.963C173.182 674.849 173.687 674.759 174.193 674.693C174.856 674.608 175.393 674.544 175.805 674.501C176.222 674.454 176.525 674.376 176.714 674.267C176.909 674.158 177.006 673.969 177.006 673.699V673.642C177.006 672.941 176.814 672.397 176.43 672.009C176.052 671.62 175.476 671.426 174.705 671.426C173.904 671.426 173.277 671.601 172.822 671.952C172.368 672.302 172.048 672.676 171.864 673.074L170.273 672.506C170.557 671.843 170.936 671.327 171.409 670.957C171.887 670.583 172.408 670.323 172.972 670.176C173.54 670.025 174.098 669.949 174.648 669.949C174.998 669.949 175.401 669.991 175.855 670.077C176.314 670.157 176.757 670.325 177.183 670.581C177.614 670.837 177.972 671.223 178.256 671.739C178.54 672.255 178.682 672.946 178.682 673.812V681H177.006V679.523H176.92C176.807 679.759 176.617 680.013 176.352 680.283C176.087 680.553 175.734 680.782 175.294 680.972C174.854 681.161 174.316 681.256 173.682 681.256ZM173.938 679.75C174.6 679.75 175.159 679.62 175.614 679.359C176.073 679.099 176.419 678.763 176.651 678.351C176.887 677.939 177.006 677.506 177.006 677.051V675.517C176.935 675.602 176.778 675.68 176.537 675.751C176.3 675.818 176.026 675.877 175.713 675.929C175.405 675.976 175.105 676.019 174.811 676.057C174.522 676.09 174.288 676.118 174.108 676.142C173.672 676.199 173.265 676.291 172.886 676.419C172.512 676.542 172.209 676.729 171.977 676.98C171.75 677.226 171.636 677.562 171.636 677.989C171.636 678.571 171.852 679.011 172.283 679.31C172.718 679.603 173.27 679.75 173.938 679.75ZM181.741 681V670.091H183.36V671.739H183.474C183.673 671.199 184.033 670.761 184.554 670.425C185.074 670.089 185.662 669.92 186.315 669.92C186.438 669.92 186.592 669.923 186.777 669.928C186.961 669.932 187.101 669.939 187.196 669.949V671.653C187.139 671.639 187.009 671.618 186.805 671.589C186.606 671.556 186.395 671.54 186.173 671.54C185.643 671.54 185.169 671.651 184.752 671.874C184.341 672.091 184.014 672.394 183.772 672.783C183.536 673.166 183.417 673.604 183.417 674.097V681H181.741ZM196.91 672.534L195.404 672.96C195.309 672.709 195.17 672.465 194.985 672.229C194.805 671.987 194.559 671.788 194.246 671.632C193.934 671.476 193.534 671.398 193.046 671.398C192.379 671.398 191.822 671.552 191.377 671.859C190.937 672.162 190.717 672.548 190.717 673.017C190.717 673.434 190.868 673.763 191.171 674.004C191.474 674.246 191.948 674.447 192.592 674.608L194.211 675.006C195.186 675.242 195.913 675.605 196.391 676.092C196.87 676.575 197.109 677.198 197.109 677.96C197.109 678.585 196.929 679.144 196.569 679.636C196.214 680.129 195.717 680.517 195.077 680.801C194.438 681.085 193.695 681.227 192.847 681.227C191.735 681.227 190.814 680.986 190.085 680.503C189.355 680.02 188.894 679.314 188.7 678.386L190.29 677.989C190.442 678.576 190.728 679.016 191.15 679.31C191.576 679.603 192.132 679.75 192.819 679.75C193.6 679.75 194.22 679.584 194.68 679.253C195.144 678.917 195.376 678.514 195.376 678.045C195.376 677.667 195.243 677.349 194.978 677.094C194.713 676.833 194.306 676.639 193.756 676.511L191.938 676.085C190.939 675.848 190.205 675.482 189.737 674.984C189.272 674.482 189.04 673.855 189.04 673.102C189.04 672.487 189.213 671.942 189.559 671.469C189.909 670.995 190.385 670.624 190.987 670.354C191.593 670.084 192.279 669.949 193.046 669.949C194.126 669.949 194.973 670.186 195.589 670.659C196.209 671.133 196.649 671.758 196.91 672.534ZM209.689 681.227C208.704 681.227 207.84 680.993 207.096 680.524C206.358 680.055 205.78 679.4 205.363 678.557C204.951 677.714 204.745 676.729 204.745 675.602C204.745 674.466 204.951 673.474 205.363 672.626C205.78 671.779 206.358 671.121 207.096 670.652C207.84 670.183 208.704 669.949 209.689 669.949C210.673 669.949 211.535 670.183 212.274 670.652C213.017 671.121 213.595 671.779 214.007 672.626C214.423 673.474 214.632 674.466 214.632 675.602C214.632 676.729 214.423 677.714 214.007 678.557C213.595 679.4 213.017 680.055 212.274 680.524C211.535 680.993 210.673 681.227 209.689 681.227ZM209.689 679.722C210.437 679.722 211.052 679.53 211.535 679.146C212.018 678.763 212.376 678.259 212.608 677.634C212.84 677.009 212.956 676.331 212.956 675.602C212.956 674.873 212.84 674.194 212.608 673.564C212.376 672.934 212.018 672.425 211.535 672.037C211.052 671.649 210.437 671.455 209.689 671.455C208.94 671.455 208.325 671.649 207.842 672.037C207.359 672.425 207.002 672.934 206.77 673.564C206.538 674.194 206.422 674.873 206.422 675.602C206.422 676.331 206.538 677.009 206.77 677.634C207.002 678.259 207.359 678.763 207.842 679.146C208.325 679.53 208.94 679.722 209.689 679.722ZM218.866 666.455V681H217.19V666.455H218.866ZM226.056 681.227C225.147 681.227 224.344 680.998 223.648 680.538C222.952 680.074 222.408 679.421 222.015 678.578C221.622 677.731 221.425 676.729 221.425 675.574C221.425 674.428 221.622 673.434 222.015 672.591C222.408 671.748 222.954 671.097 223.655 670.638C224.356 670.179 225.166 669.949 226.084 669.949C226.794 669.949 227.355 670.067 227.767 670.304C228.184 670.536 228.501 670.801 228.719 671.099C228.942 671.393 229.114 671.634 229.238 671.824H229.38V666.455H231.056V681H229.436V679.324H229.238C229.114 679.523 228.939 679.774 228.712 680.077C228.485 680.375 228.16 680.643 227.739 680.879C227.318 681.111 226.757 681.227 226.056 681.227ZM226.283 679.722C226.955 679.722 227.524 679.546 227.988 679.196C228.452 678.841 228.804 678.351 229.046 677.726C229.287 677.096 229.408 676.369 229.408 675.545C229.408 674.731 229.29 674.018 229.053 673.408C228.816 672.792 228.466 672.314 228.002 671.973C227.538 671.627 226.965 671.455 226.283 671.455C225.573 671.455 224.981 671.637 224.507 672.001C224.039 672.361 223.686 672.851 223.449 673.472C223.217 674.087 223.101 674.778 223.101 675.545C223.101 676.322 223.22 677.027 223.456 677.662C223.698 678.292 224.053 678.794 224.522 679.168C224.995 679.537 225.582 679.722 226.283 679.722Z" fill="black"/>
<path d="M74.8986 600.455V615H73.1373V602.301H73.052L69.5009 604.659V602.869L73.1373 600.455H74.8986ZM83.7125 600.256C84.3091 600.26 84.9057 600.374 85.5023 600.597C86.0989 600.819 86.6434 601.188 87.1358 601.705C87.6283 602.216 88.0236 602.914 88.3219 603.8C88.6202 604.685 88.7694 605.795 88.7694 607.131C88.7694 608.423 88.6462 609.571 88.4 610.575C88.1586 611.574 87.8082 612.417 87.3489 613.104C86.8944 613.79 86.3404 614.311 85.687 614.666C85.0383 615.021 84.3044 615.199 83.4853 615.199C82.6709 615.199 81.9441 615.038 81.3049 614.716C80.6704 614.389 80.1496 613.937 79.7424 613.359C79.3399 612.777 79.0819 612.102 78.9682 611.335H80.7012C80.8574 612.003 81.1676 612.554 81.6316 612.99C82.1003 613.421 82.7182 613.636 83.4853 613.636C84.6074 613.636 85.4928 613.146 86.1415 612.166C86.7949 611.186 87.1216 609.801 87.1216 608.011H87.008C86.7428 608.409 86.428 608.752 86.0634 609.041C85.6988 609.33 85.294 609.553 84.8489 609.709C84.4038 609.865 83.9303 609.943 83.4284 609.943C82.5951 609.943 81.8304 609.737 81.1344 609.325C80.4431 608.909 79.8891 608.338 79.4725 607.614C79.0605 606.884 78.8546 606.051 78.8546 605.114C78.8546 604.223 79.0534 603.409 79.4512 602.67C79.8536 601.927 80.4171 601.335 81.1415 600.895C81.8707 600.455 82.7277 600.241 83.7125 600.256ZM83.7125 601.818C83.1159 601.818 82.5785 601.967 82.1003 602.266C81.6268 602.559 81.2504 602.957 80.9711 603.459C80.6964 603.956 80.5591 604.508 80.5591 605.114C80.5591 605.72 80.6917 606.271 80.9569 606.768C81.2267 607.261 81.5937 607.654 82.0577 607.947C82.5265 608.236 83.0591 608.381 83.6557 608.381C84.1055 608.381 84.5246 608.293 84.9128 608.118C85.3011 607.938 85.6396 607.694 85.9284 607.386C86.222 607.074 86.4516 606.721 86.6174 606.328C86.7831 605.93 86.8659 605.516 86.8659 605.085C86.8659 604.517 86.7286 603.984 86.454 603.487C86.1841 602.99 85.8101 602.588 85.3319 602.28C84.8584 601.972 84.3186 601.818 83.7125 601.818ZM96.3066 615.199C95.2366 615.199 94.3251 614.908 93.5723 614.325C92.8194 613.738 92.2441 612.888 91.8464 611.776C91.4487 610.658 91.2498 609.309 91.2498 607.727C91.2498 606.155 91.4487 604.813 91.8464 603.7C92.2489 602.583 92.8265 601.731 93.5794 601.143C94.3369 600.552 95.246 600.256 96.3066 600.256C97.3672 600.256 98.274 600.552 99.0268 601.143C99.7844 601.731 100.362 602.583 100.76 603.7C101.162 604.813 101.363 606.155 101.363 607.727C101.363 609.309 101.165 610.658 100.767 611.776C100.369 612.888 99.7939 613.738 99.041 614.325C98.2882 614.908 97.3767 615.199 96.3066 615.199ZM96.3066 613.636C97.3672 613.636 98.1911 613.125 98.7782 612.102C99.3654 611.08 99.6589 609.621 99.6589 607.727C99.6589 606.468 99.524 605.395 99.2541 604.51C98.9889 603.625 98.6054 602.95 98.1035 602.486C97.6064 602.022 97.0074 601.79 96.3066 601.79C95.2555 601.79 94.434 602.308 93.8422 603.345C93.2503 604.377 92.9544 605.838 92.9544 607.727C92.9544 608.987 93.0869 610.057 93.3521 610.938C93.6172 611.818 93.9984 612.488 94.4956 612.947C94.9975 613.407 95.6011 613.636 96.3066 613.636ZM109.148 602.017V600.455H120.057V602.017H115.483V615H113.721V602.017H109.148ZM121.415 615V604.091H123.034V605.739H123.148C123.347 605.199 123.707 604.761 124.227 604.425C124.748 604.089 125.335 603.92 125.989 603.92C126.112 603.92 126.266 603.923 126.45 603.928C126.635 603.932 126.775 603.939 126.869 603.949V605.653C126.813 605.639 126.682 605.618 126.479 605.589C126.28 605.556 126.069 605.54 125.847 605.54C125.316 605.54 124.843 605.651 124.426 605.874C124.014 606.091 123.688 606.394 123.446 606.783C123.209 607.166 123.091 607.604 123.091 608.097V615H121.415ZM133.098 615.227C132.047 615.227 131.14 614.995 130.378 614.531C129.62 614.062 129.036 613.409 128.624 612.571C128.217 611.728 128.013 610.748 128.013 609.631C128.013 608.513 128.217 607.528 128.624 606.676C129.036 605.819 129.609 605.152 130.343 604.673C131.081 604.19 131.943 603.949 132.928 603.949C133.496 603.949 134.057 604.044 134.611 604.233C135.165 604.422 135.669 604.73 136.124 605.156C136.578 605.578 136.941 606.136 137.21 606.832C137.48 607.528 137.615 608.385 137.615 609.403V610.114H129.206V608.665H135.911C135.911 608.049 135.788 607.5 135.541 607.017C135.3 606.534 134.954 606.153 134.504 605.874C134.059 605.594 133.534 605.455 132.928 605.455C132.26 605.455 131.682 605.62 131.195 605.952C130.712 606.278 130.34 606.705 130.08 607.23C129.819 607.756 129.689 608.319 129.689 608.92V609.886C129.689 610.71 129.831 611.409 130.115 611.982C130.404 612.55 130.804 612.983 131.316 613.281C131.827 613.575 132.421 613.722 133.098 613.722C133.539 613.722 133.936 613.66 134.291 613.537C134.651 613.409 134.961 613.22 135.222 612.969C135.482 612.713 135.683 612.396 135.825 612.017L137.445 612.472C137.274 613.021 136.988 613.504 136.585 613.92C136.183 614.332 135.686 614.654 135.094 614.886C134.502 615.114 133.837 615.227 133.098 615.227ZM144.739 615.227C143.688 615.227 142.781 614.995 142.019 614.531C141.261 614.062 140.676 613.409 140.264 612.571C139.857 611.728 139.654 610.748 139.654 609.631C139.654 608.513 139.857 607.528 140.264 606.676C140.676 605.819 141.249 605.152 141.983 604.673C142.722 604.19 143.584 603.949 144.568 603.949C145.137 603.949 145.698 604.044 146.252 604.233C146.806 604.422 147.31 604.73 147.764 605.156C148.219 605.578 148.581 606.136 148.851 606.832C149.121 607.528 149.256 608.385 149.256 609.403V610.114H140.847V608.665H147.551C147.551 608.049 147.428 607.5 147.182 607.017C146.941 606.534 146.595 606.153 146.145 605.874C145.7 605.594 145.174 605.455 144.568 605.455C143.901 605.455 143.323 605.62 142.835 605.952C142.352 606.278 141.981 606.705 141.72 607.23C141.46 607.756 141.33 608.319 141.33 608.92V609.886C141.33 610.71 141.472 611.409 141.756 611.982C142.045 612.55 142.445 612.983 142.956 613.281C143.468 613.575 144.062 613.722 144.739 613.722C145.179 613.722 145.577 613.66 145.932 613.537C146.292 613.409 146.602 613.22 146.862 612.969C147.123 612.713 147.324 612.396 147.466 612.017L149.085 612.472C148.915 613.021 148.628 613.504 148.226 613.92C147.824 614.332 147.326 614.654 146.735 614.886C146.143 615.114 145.477 615.227 144.739 615.227ZM159.533 606.534L158.027 606.96C157.932 606.709 157.793 606.465 157.608 606.229C157.428 605.987 157.182 605.788 156.869 605.632C156.557 605.476 156.157 605.398 155.669 605.398C155.002 605.398 154.445 605.552 154 605.859C153.56 606.162 153.34 606.548 153.34 607.017C153.34 607.434 153.491 607.763 153.794 608.004C154.097 608.246 154.571 608.447 155.215 608.608L156.834 609.006C157.809 609.242 158.536 609.605 159.014 610.092C159.493 610.575 159.732 611.198 159.732 611.96C159.732 612.585 159.552 613.144 159.192 613.636C158.837 614.129 158.34 614.517 157.7 614.801C157.061 615.085 156.318 615.227 155.47 615.227C154.358 615.227 153.437 614.986 152.708 614.503C151.978 614.02 151.517 613.314 151.323 612.386L152.914 611.989C153.065 612.576 153.352 613.016 153.773 613.31C154.199 613.603 154.755 613.75 155.442 613.75C156.223 613.75 156.843 613.584 157.303 613.253C157.767 612.917 157.999 612.514 157.999 612.045C157.999 611.667 157.866 611.349 157.601 611.094C157.336 610.833 156.929 610.639 156.379 610.511L154.561 610.085C153.562 609.848 152.828 609.482 152.36 608.984C151.896 608.482 151.664 607.855 151.664 607.102C151.664 606.487 151.836 605.942 152.182 605.469C152.532 604.995 153.008 604.624 153.61 604.354C154.216 604.084 154.902 603.949 155.669 603.949C156.749 603.949 157.596 604.186 158.212 604.659C158.832 605.133 159.272 605.758 159.533 606.534Z" fill="black"/>
<path d="M122.5 509L129.25 510.809L134.191 515.75L136 522.5L134.191 529.25L129.25 534.191L122.5 536L115.75 534.191L110.809 529.25L109 522.5L110.809 515.75L115.75 510.809L122.5 509Z" fill="#4B7935"/>
<path d="M156.5 509L163.25 510.809L168.191 515.75L170 522.5L168.191 529.25L163.25 534.191L156.5 536L149.75 534.191L144.809 529.25L143 522.5L144.809 515.75L149.75 510.809L156.5 509Z" fill="#4B7935"/>
<path d="M949.5 364L956.25 365.809L961.191 370.75L963 377.5L961.191 384.25L956.25 389.191L949.5 391L942.75 389.191L937.809 384.25L936 377.5L937.809 370.75L942.75 365.809L949.5 364Z" fill="#4B7935"/>
</svg>
