<svg width="150" height="49" viewBox="0 0 150 49" fill="none" xmlns="http://www.w3.org/2000/svg">
<path d="M5.53711 34.8438C5.53711 34.6445 5.50586 34.4688 5.44336 34.3164C5.38477 34.1602 5.2793 34.0195 5.12695 33.8945C4.97852 33.7695 4.77148 33.6504 4.50586 33.5371C4.24414 33.4238 3.91211 33.3086 3.50977 33.1914C3.08789 33.0664 2.70703 32.9277 2.36719 32.7754C2.02734 32.6191 1.73633 32.4414 1.49414 32.2422C1.25195 32.043 1.06641 31.8145 0.9375 31.5566C0.808594 31.2988 0.744141 31.0039 0.744141 30.6719C0.744141 30.3398 0.8125 30.0332 0.949219 29.752C1.08594 29.4707 1.28125 29.2266 1.53516 29.0195C1.79297 28.8086 2.09961 28.6445 2.45508 28.5273C2.81055 28.4102 3.20703 28.3516 3.64453 28.3516C4.28516 28.3516 4.82812 28.4746 5.27344 28.7207C5.72266 28.9629 6.06445 29.2812 6.29883 29.6758C6.5332 30.0664 6.65039 30.4844 6.65039 30.9297H5.52539C5.52539 30.6094 5.45703 30.3262 5.32031 30.0801C5.18359 29.8301 4.97656 29.6348 4.69922 29.4941C4.42188 29.3496 4.07031 29.2773 3.64453 29.2773C3.24219 29.2773 2.91016 29.3379 2.64844 29.459C2.38672 29.5801 2.19141 29.7441 2.0625 29.9512C1.9375 30.1582 1.875 30.3945 1.875 30.6602C1.875 30.8398 1.91211 31.0039 1.98633 31.1523C2.06445 31.2969 2.18359 31.4316 2.34375 31.5566C2.50781 31.6816 2.71484 31.7969 2.96484 31.9023C3.21875 32.0078 3.52148 32.1094 3.87305 32.207C4.35742 32.3438 4.77539 32.4961 5.12695 32.6641C5.47852 32.832 5.76758 33.0215 5.99414 33.2324C6.22461 33.4395 6.39453 33.6758 6.50391 33.9414C6.61719 34.2031 6.67383 34.5 6.67383 34.832C6.67383 35.1797 6.60352 35.4941 6.46289 35.7754C6.32227 36.0566 6.12109 36.2969 5.85938 36.4961C5.59766 36.6953 5.2832 36.8496 4.91602 36.959C4.55273 37.0645 4.14648 37.1172 3.69727 37.1172C3.30273 37.1172 2.91406 37.0625 2.53125 36.9531C2.15234 36.8438 1.80664 36.6797 1.49414 36.4609C1.18555 36.2422 0.9375 35.9727 0.75 35.6523C0.566406 35.3281 0.474609 34.9531 0.474609 34.5273H1.59961C1.59961 34.8203 1.65625 35.0723 1.76953 35.2832C1.88281 35.4902 2.03711 35.6621 2.23242 35.7988C2.43164 35.9355 2.65625 36.0371 2.90625 36.1035C3.16016 36.166 3.42383 36.1973 3.69727 36.1973C4.0918 36.1973 4.42578 36.1426 4.69922 36.0332C4.97266 35.9238 5.17969 35.7676 5.32031 35.5645C5.46484 35.3613 5.53711 35.1211 5.53711 34.8438ZM9.32812 28.4688V37H8.19727V28.4688H9.32812ZM16.5352 34.2871H17.6602C17.6016 34.8262 17.4473 35.3086 17.1973 35.7344C16.9473 36.1602 16.5938 36.498 16.1367 36.748C15.6797 36.9941 15.1094 37.1172 14.4258 37.1172C13.9258 37.1172 13.4707 37.0234 13.0605 36.8359C12.6543 36.6484 12.3047 36.3828 12.0117 36.0391C11.7188 35.6914 11.4922 35.2754 11.332 34.791C11.1758 34.3027 11.0977 33.7598 11.0977 33.1621V32.3125C11.0977 31.7148 11.1758 31.1738 11.332 30.6895C11.4922 30.2012 11.7207 29.7832 12.0176 29.4355C12.3184 29.0879 12.6797 28.8203 13.1016 28.6328C13.5234 28.4453 13.998 28.3516 14.5254 28.3516C15.1699 28.3516 15.7148 28.4727 16.1602 28.7148C16.6055 28.957 16.9512 29.293 17.1973 29.7227C17.4473 30.1484 17.6016 30.6426 17.6602 31.2051H16.5352C16.4805 30.8066 16.3789 30.4648 16.2305 30.1797C16.082 29.8906 15.8711 29.668 15.5977 29.5117C15.3242 29.3555 14.9668 29.2773 14.5254 29.2773C14.1465 29.2773 13.8125 29.3496 13.5234 29.4941C13.2383 29.6387 12.998 29.8438 12.8027 30.1094C12.6113 30.375 12.4668 30.6934 12.3691 31.0645C12.2715 31.4355 12.2227 31.8477 12.2227 32.3008V33.1621C12.2227 33.5801 12.2656 33.9727 12.3516 34.3398C12.4414 34.707 12.5762 35.0293 12.7559 35.3066C12.9355 35.584 13.1641 35.8027 13.4414 35.9629C13.7188 36.1191 14.0469 36.1973 14.4258 36.1973C14.9062 36.1973 15.2891 36.1211 15.5742 35.9688C15.8594 35.8164 16.0742 35.5977 16.2188 35.3125C16.3672 35.0273 16.4727 34.6855 16.5352 34.2871ZM20.4141 28.4688V37H19.2832V28.4688H20.4141ZM27.6445 36.0801V37H23.3789V36.0801H27.6445ZM23.6016 28.4688V37H22.4707V28.4688H23.6016ZM30.1523 28.4688V37H29.0215V28.4688H30.1523ZM35.4727 29.2246L32.6484 37H31.4941L34.7461 28.4688H35.4902L35.4727 29.2246ZM37.8398 37L35.0098 29.2246L34.9922 28.4688H35.7363L39 37H37.8398ZM37.6934 33.8418V34.7676H32.9004V33.8418H37.6934ZM46.7051 28.4688V37H45.5684L41.2734 30.4199V37H40.1426V28.4688H41.2734L45.5859 35.0664V28.4688H46.7051ZM58.2539 32.4648V33.0039C58.2539 33.6445 58.1738 34.2188 58.0137 34.7266C57.8535 35.2344 57.623 35.666 57.3223 36.0215C57.0215 36.377 56.6602 36.6484 56.2383 36.8359C55.8203 37.0234 55.3516 37.1172 54.832 37.1172C54.3281 37.1172 53.8652 37.0234 53.4434 36.8359C53.0254 36.6484 52.6621 36.377 52.3535 36.0215C52.0488 35.666 51.8125 35.2344 51.6445 34.7266C51.4766 34.2188 51.3926 33.6445 51.3926 33.0039V32.4648C51.3926 31.8242 51.4746 31.252 51.6387 30.748C51.8066 30.2402 52.043 29.8086 52.3477 29.4531C52.6523 29.0938 53.0137 28.8203 53.4316 28.6328C53.8535 28.4453 54.3164 28.3516 54.8203 28.3516C55.3398 28.3516 55.8086 28.4453 56.2266 28.6328C56.6484 28.8203 57.0098 29.0938 57.3105 29.4531C57.6152 29.8086 57.8477 30.2402 58.0078 30.748C58.1719 31.252 58.2539 31.8242 58.2539 32.4648ZM57.1348 33.0039V32.4531C57.1348 31.9453 57.082 31.4961 56.9766 31.1055C56.875 30.7148 56.7246 30.3867 56.5254 30.1211C56.3262 29.8555 56.082 29.6543 55.793 29.5176C55.5078 29.3809 55.1836 29.3125 54.8203 29.3125C54.4688 29.3125 54.1504 29.3809 53.8652 29.5176C53.584 29.6543 53.3418 29.8555 53.1387 30.1211C52.9395 30.3867 52.7852 30.7148 52.6758 31.1055C52.5664 31.4961 52.5117 31.9453 52.5117 32.4531V33.0039C52.5117 33.5156 52.5664 33.9688 52.6758 34.3633C52.7852 34.7539 52.9414 35.084 53.1445 35.3535C53.3516 35.6191 53.5957 35.8203 53.877 35.957C54.1621 36.0938 54.4805 36.1621 54.832 36.1621C55.1992 36.1621 55.5254 36.0938 55.8105 35.957C56.0957 35.8203 56.3359 35.6191 56.5312 35.3535C56.7305 35.084 56.8809 34.7539 56.9824 34.3633C57.084 33.9688 57.1348 33.5156 57.1348 33.0039ZM65.1211 36.0801V37H60.8555V36.0801H65.1211ZM61.0781 28.4688V37H59.9473V28.4688H61.0781ZM67.6289 28.4688V37H66.498V28.4688H67.6289ZM72.4395 35.7051L74.9531 28.4688H76.1777L73.0195 37H72.1465L72.4395 35.7051ZM70.0898 28.4688L72.5801 35.7051L72.8906 37H72.0176L68.8652 28.4688H70.0898ZM82.7461 36.0801V37H78.2285V36.0801H82.7461ZM78.457 28.4688V37H77.3262V28.4688H78.457ZM82.1484 32.1367V33.0566H78.2285V32.1367H82.1484ZM82.6875 28.4688V29.3945H78.2285V28.4688H82.6875ZM88.6934 34.8438C88.6934 34.6445 88.6621 34.4688 88.5996 34.3164C88.541 34.1602 88.4355 34.0195 88.2832 33.8945C88.1348 33.7695 87.9277 33.6504 87.6621 33.5371C87.4004 33.4238 87.0684 33.3086 86.666 33.1914C86.2441 33.0664 85.8633 32.9277 85.5234 32.7754C85.1836 32.6191 84.8926 32.4414 84.6504 32.2422C84.4082 32.043 84.2227 31.8145 84.0938 31.5566C83.9648 31.2988 83.9004 31.0039 83.9004 30.6719C83.9004 30.3398 83.9688 30.0332 84.1055 29.752C84.2422 29.4707 84.4375 29.2266 84.6914 29.0195C84.9492 28.8086 85.2559 28.6445 85.6113 28.5273C85.9668 28.4102 86.3633 28.3516 86.8008 28.3516C87.4414 28.3516 87.9844 28.4746 88.4297 28.7207C88.8789 28.9629 89.2207 29.2812 89.4551 29.6758C89.6895 30.0664 89.8066 30.4844 89.8066 30.9297H88.6816C88.6816 30.6094 88.6133 30.3262 88.4766 30.0801C88.3398 29.8301 88.1328 29.6348 87.8555 29.4941C87.5781 29.3496 87.2266 29.2773 86.8008 29.2773C86.3984 29.2773 86.0664 29.3379 85.8047 29.459C85.543 29.5801 85.3477 29.7441 85.2188 29.9512C85.0938 30.1582 85.0312 30.3945 85.0312 30.6602C85.0312 30.8398 85.0684 31.0039 85.1426 31.1523C85.2207 31.2969 85.3398 31.4316 85.5 31.5566C85.6641 31.6816 85.8711 31.7969 86.1211 31.9023C86.375 32.0078 86.6777 32.1094 87.0293 32.207C87.5137 32.3438 87.9316 32.4961 88.2832 32.6641C88.6348 32.832 88.9238 33.0215 89.1504 33.2324C89.3809 33.4395 89.5508 33.6758 89.6602 33.9414C89.7734 34.2031 89.8301 34.5 89.8301 34.832C89.8301 35.1797 89.7598 35.4941 89.6191 35.7754C89.4785 36.0566 89.2773 36.2969 89.0156 36.4961C88.7539 36.6953 88.4395 36.8496 88.0723 36.959C87.709 37.0645 87.3027 37.1172 86.8535 37.1172C86.459 37.1172 86.0703 37.0625 85.6875 36.9531C85.3086 36.8438 84.9629 36.6797 84.6504 36.4609C84.3418 36.2422 84.0938 35.9727 83.9062 35.6523C83.7227 35.3281 83.6309 34.9531 83.6309 34.5273H84.7559C84.7559 34.8203 84.8125 35.0723 84.9258 35.2832C85.0391 35.4902 85.1934 35.6621 85.3887 35.7988C85.5879 35.9355 85.8125 36.0371 86.0625 36.1035C86.3164 36.166 86.5801 36.1973 86.8535 36.1973C87.248 36.1973 87.582 36.1426 87.8555 36.0332C88.1289 35.9238 88.3359 35.7676 88.4766 35.5645C88.6211 35.3613 88.6934 35.1211 88.6934 34.8438Z" fill="#3E7C3E"/>
<path d="M142.821 23.4888C146.171 31.7927 143.52 40.4597 137.215 43.0035C130.91 45.5472 122.987 41.1461 119.637 32.8422C116.287 24.5383 118.938 15.8712 125.243 13.3275C131.548 10.7837 139.471 15.1849 142.821 23.4888Z" fill="#295135" stroke="#C1C04D"/>
<path d="M128.999 21.5C127.832 16.5 126.199 5.4 128.999 1" stroke="#C1C04D" stroke-width="2"/>
<path d="M5.70703 19.1699H7.45898C7.42383 19.7441 7.26562 20.2539 6.98438 20.6992C6.70703 21.1445 6.31836 21.4922 5.81836 21.7422C5.32227 21.9922 4.72461 22.1172 4.02539 22.1172C3.47852 22.1172 2.98828 22.0234 2.55469 21.8359C2.12109 21.6445 1.75 21.3711 1.44141 21.0156C1.13672 20.6602 0.904297 20.2305 0.744141 19.7266C0.583984 19.2227 0.503906 18.6582 0.503906 18.0332V17.4414C0.503906 16.8164 0.585938 16.252 0.75 15.748C0.917969 15.2402 1.15625 14.8086 1.46484 14.4531C1.77734 14.0977 2.15039 13.8242 2.58398 13.6328C3.01758 13.4414 3.50195 13.3457 4.03711 13.3457C4.74805 13.3457 5.34766 13.4746 5.83594 13.7324C6.32812 13.9902 6.70898 14.3457 6.97852 14.7988C7.25195 15.252 7.41602 15.7676 7.4707 16.3457H5.71289C5.69336 16.002 5.625 15.7109 5.50781 15.4727C5.39062 15.2305 5.21289 15.0488 4.97461 14.9277C4.74023 14.8027 4.42773 14.7402 4.03711 14.7402C3.74414 14.7402 3.48828 14.7949 3.26953 14.9043C3.05078 15.0137 2.86719 15.1797 2.71875 15.4023C2.57031 15.625 2.45898 15.9062 2.38477 16.2461C2.31445 16.582 2.2793 16.9766 2.2793 17.4297V18.0332C2.2793 18.4746 2.3125 18.8633 2.37891 19.1992C2.44531 19.5312 2.54688 19.8125 2.68359 20.043C2.82422 20.2695 3.00391 20.4414 3.22266 20.5586C3.44531 20.6719 3.71289 20.7285 4.02539 20.7285C4.39258 20.7285 4.69531 20.6699 4.93359 20.5527C5.17188 20.4355 5.35352 20.2617 5.47852 20.0312C5.60742 19.8008 5.68359 19.5137 5.70703 19.1699ZM15.6211 17.5352V17.9395C15.6211 18.5879 15.5332 19.1699 15.3574 19.6855C15.1816 20.2012 14.9336 20.6406 14.6133 21.0039C14.293 21.3633 13.9102 21.6387 13.4648 21.8301C13.0234 22.0215 12.5332 22.1172 11.9941 22.1172C11.459 22.1172 10.9688 22.0215 10.5234 21.8301C10.082 21.6387 9.69922 21.3633 9.375 21.0039C9.05078 20.6406 8.79883 20.2012 8.61914 19.6855C8.44336 19.1699 8.35547 18.5879 8.35547 17.9395V17.5352C8.35547 16.8828 8.44336 16.3008 8.61914 15.7891C8.79492 15.2734 9.04297 14.834 9.36328 14.4707C9.6875 14.1074 10.0703 13.8301 10.5117 13.6387C10.957 13.4473 11.4473 13.3516 11.9824 13.3516C12.5215 13.3516 13.0117 13.4473 13.4531 13.6387C13.8984 13.8301 14.2812 14.1074 14.6016 14.4707C14.9258 14.834 15.1758 15.2734 15.3516 15.7891C15.5312 16.3008 15.6211 16.8828 15.6211 17.5352ZM13.8457 17.9395V17.5234C13.8457 17.0703 13.8047 16.6719 13.7227 16.3281C13.6406 15.9844 13.5195 15.6953 13.3594 15.4609C13.1992 15.2266 13.0039 15.0508 12.7734 14.9336C12.543 14.8125 12.2793 14.752 11.9824 14.752C11.6855 14.752 11.4219 14.8125 11.1914 14.9336C10.9648 15.0508 10.7715 15.2266 10.6113 15.4609C10.4551 15.6953 10.3359 15.9844 10.2539 16.3281C10.1719 16.6719 10.1309 17.0703 10.1309 17.5234V17.9395C10.1309 18.3887 10.1719 18.7871 10.2539 19.1348C10.3359 19.4785 10.457 19.7695 10.6172 20.0078C10.7773 20.2422 10.9727 20.4199 11.2031 20.541C11.4336 20.6621 11.6973 20.7227 11.9941 20.7227C12.291 20.7227 12.5547 20.6621 12.7852 20.541C13.0156 20.4199 13.209 20.2422 13.3652 20.0078C13.5215 19.7695 13.6406 19.4785 13.7227 19.1348C13.8047 18.7871 13.8457 18.3887 13.8457 17.9395ZM22.3711 20.6289V22H18.0762V20.6289H22.3711ZM18.6445 13.4688V22H16.8867V13.4688H18.6445ZM28.8633 20.6289V22H24.5684V20.6289H28.8633ZM25.1367 13.4688V22H23.3789V13.4688H25.1367ZM35.5957 20.6289V22H31.0547V20.6289H35.5957ZM31.6289 13.4688V22H29.8711V13.4688H31.6289ZM35.0039 16.9434V18.2793H31.0547V16.9434H35.0039ZM35.5898 13.4688V14.8457H31.0547V13.4688H35.5898ZM42.2285 22H40.3711L40.3828 20.6289H42.2285C42.6895 20.6289 43.0781 20.5254 43.3945 20.3184C43.7109 20.1074 43.9492 19.8008 44.1094 19.3984C44.2734 18.9961 44.3555 18.5098 44.3555 17.9395V17.5234C44.3555 17.0859 44.3086 16.7012 44.2148 16.3691C44.125 16.0371 43.9902 15.7578 43.8105 15.5312C43.6309 15.3047 43.4102 15.1348 43.1484 15.0215C42.8867 14.9043 42.5859 14.8457 42.2461 14.8457H40.3359V13.4688H42.2461C42.8164 13.4688 43.3379 13.5664 43.8105 13.7617C44.2871 13.9531 44.6992 14.2285 45.0469 14.5879C45.3945 14.9473 45.6621 15.377 45.8496 15.877C46.041 16.373 46.1367 16.9258 46.1367 17.5352V17.9395C46.1367 18.5449 46.041 19.0977 45.8496 19.5977C45.6621 20.0977 45.3945 20.5273 45.0469 20.8867C44.7031 21.2422 44.291 21.5176 43.8105 21.7129C43.334 21.9043 42.8066 22 42.2285 22ZM41.3672 13.4688V22H39.6094V13.4688H41.3672ZM53.1387 20.6289V22H48.5977V20.6289H53.1387ZM49.1719 13.4688V22H47.4141V13.4688H49.1719ZM52.5469 16.9434V18.2793H48.5977V16.9434H52.5469ZM53.1328 13.4688V14.8457H48.5977V13.4688H53.1328ZM60.9258 17.541V20.9219C60.793 21.082 60.5879 21.2559 60.3105 21.4434C60.0332 21.627 59.6758 21.7852 59.2383 21.918C58.8008 22.0508 58.2715 22.1172 57.6504 22.1172C57.0996 22.1172 56.5977 22.0273 56.1445 21.8477C55.6914 21.6641 55.3008 21.3965 54.9727 21.0449C54.6484 20.6934 54.3984 20.2637 54.2227 19.7559C54.0469 19.2441 53.959 18.6602 53.959 18.0039V17.4707C53.959 16.8145 54.043 16.2305 54.2109 15.7188C54.3828 15.207 54.627 14.7754 54.9434 14.4238C55.2598 14.0723 55.6367 13.8047 56.0742 13.6211C56.5117 13.4375 56.998 13.3457 57.5332 13.3457C58.2754 13.3457 58.8848 13.4668 59.3613 13.709C59.8379 13.9473 60.2012 14.2793 60.4512 14.7051C60.7051 15.127 60.8613 15.6113 60.9199 16.1582H59.2148C59.1719 15.8691 59.0898 15.6172 58.9688 15.4023C58.8477 15.1875 58.6738 15.0195 58.4473 14.8984C58.2246 14.7773 57.9355 14.7168 57.5801 14.7168C57.2871 14.7168 57.0254 14.7773 56.7949 14.8984C56.5684 15.0156 56.377 15.1895 56.2207 15.4199C56.0645 15.6504 55.9453 15.9355 55.8633 16.2754C55.7812 16.6152 55.7402 17.0098 55.7402 17.459V18.0039C55.7402 18.4492 55.7832 18.8438 55.8691 19.1875C55.9551 19.5273 56.082 19.8145 56.25 20.0488C56.4219 20.2793 56.6328 20.4531 56.8828 20.5703C57.1328 20.6875 57.4238 20.7461 57.7559 20.7461C58.0332 20.7461 58.2637 20.7227 58.4473 20.6758C58.6348 20.6289 58.7852 20.5723 58.8984 20.5059C59.0156 20.4355 59.1055 20.3691 59.168 20.3066V18.7949H57.5625V17.541H60.9258ZM67.8281 20.6289V22H63.5332V20.6289H67.8281ZM64.1016 13.4688V22H62.3438V13.4688H64.1016ZM70.7051 13.4688V22H68.9531V13.4688H70.7051ZM81.0645 20.6289V22H76.5234V20.6289H81.0645ZM77.0977 13.4688V22H75.3398V13.4688H77.0977ZM80.4727 16.9434V18.2793H76.5234V16.9434H80.4727ZM81.0586 13.4688V14.8457H76.5234V13.4688H81.0586ZM87.5742 20.6289V22H83.2793V20.6289H87.5742ZM83.8477 13.4688V22H82.0898V13.4688H83.8477ZM90.4512 13.4688V22H88.6992V13.4688H90.4512ZM92.9004 13.4688H94.3887L96.5801 19.7324L98.7715 13.4688H100.26L97.1777 22H95.9824L92.9004 13.4688ZM92.0977 13.4688H93.5801L93.8496 19.5742V22H92.0977V13.4688ZM99.5801 13.4688H101.068V22H99.3105V19.5742L99.5801 13.4688ZM104.479 13.4688V22H102.727V13.4688H104.479Z" fill="#3E7C3E"/>
</svg>
